How Facebook Changed the World: The Arab Spring E01. BBC HD 720p x264 mp4 aac w/subtitles [aularon]



- - -
Synopsis
- - -
The story of how the Arab world erupted in revolution, as a new generation used the internet and social media to try to overthrow their hated leaders.

In the first of this two-part series, Mishal Husain charts events in Tunisia and Egypt by meeting those who led the revolts and showing the unique footage they shot.


- - -
URL
- - -   
http://www.bbc.co.uk/programmes/b014grsr


- - -
Technical Details
- - -
General
Complete name                    : BBC.How.Facebook.Changed.the.World.The.Arab.Spring.E01/How_Facebook_Changed_the_World_-_The_Arab_Spring_Episode_1_b014grsr_default.mp4
Format                           : MPEG-4
Format profile                   : Base Media
Codec ID                         : isom
File size                        : 1.05 GiB
Duration                         : 58mn 55s
Overall bit rate                 : 2 544 Kbps
Movie name                       : How Facebook Changed the World: The Arab Spring: Episode 1
Album                            : How Facebook Changed the World
Track name/Position              : 1
Track name/Total                 : 0
Performer                        : How Facebook Changed the World
Genre                            : Factual,Arts, Culture & the Media
Recorded date                    : 2011-09-05T21:00:00+01:00
Tagged date                      : UTC 2011-09-06 01:19:33
Writing application              : Lavf53.10.0
Cover                            : Yes
Comment                          : Recorded using get_iplayer, by Aularon.
rtng                             : 4
stik                             : 1
desc                             : The story of how the Arab world erupted in revolution. Mishal Husain charts events in Tunisia and Egypt, meets leaders of the revolts and shows the unique footage they shot.
tvnn                             : BBC HD
tvsh                             : How Facebook Changed the World
tven                             : b014grsr
catg                             : Factual,Arts, Culture & the Media
tves                             : 1

Video
ID                               : 1
Format                           : AVC
Format/Info                      : Advanced Video Codec
Format profile                   : High@L4.1
Format settings, CABAC           : Yes
Format settings, ReFrames        : 6 frames
Format settings, GOP             : M=4, N=39
Codec ID                         : avc1
Codec ID/Info                    : Advanced Video Coding
Duration                         : 58mn 55s
Bit rate mode                    : Variable
Bit rate                         : 2 444 Kbps
Maximum bit rate                 : 3 500 Kbps
Width                            : 1 280 pixels
Height                           : 720 pixels
Display aspect ratio             : 16:9
Frame rate mode                  : Constant
Frame rate                       : 25.000 fps
Standard                         : PAL
Color space                      : YUV
Chroma subsampling               : 4:2:0
Bit depth                        : 8 bits
Scan type                        : Progressive
Bits/(Pixel*Frame)               : 0.106
Stream size                      : 1.01 GiB (96%)

Audio
ID                               : 2
Format                           : AAC
Format/Info                      : Advanced Audio Codec
Format profile                   : HE-AAC / LC
Codec ID                         : 40
Duration                         : 58mn 55s
Bit rate mode                    : Constant
Bit rate                         : 96.0 Kbps
Channel(s)                       : 2 channels
Channel positions                : Front: L R
Sampling rate                    : 48.0 KHz / 24.0 KHz
Compression mode                 : Lossy
Stream size                      : 39.9 MiB (4%)


                  ______                                     
                 (____  \                                    
                  ____)  )_____  ____ _____ _   _  ___ _____ 
                 |  __  (| ___ |/ ___|____ | | | |/___) ___ |
            _ _ _| |__)  ) ____( (___/ ___ | |_| |___ | ____|
           (_|_|_)______/|_____)\____)_____|____/(___/|_____)
                                                              
                   ______ _                 _             
                  / _____) |               (_)            
                 ( (____ | |__  _____  ____ _ ____   ____ 
                  \____ \|  _ \(____ |/ ___) |  _ \ / _  |
                  _____) ) | | / ___ | |   | | | | ( (_| |
                 (______/|_| |_\_____|_|   |_|_| |_|\___ |
                                                   (_____|
                                  _      
                                 (_)     
                                  _  ___ 
                                 | |/___)
                                 | |___ |
                                 |_(___/ 

                    _______             _               
                   (_______)           (_)              
                    _       _____  ____ _ ____   ____   
                   | |     (____ |/ ___) |  _ \ / _  |  
                   | |_____/ ___ | |   | | | | ( (_| |_ 
                    \______)_____|_|   |_|_| |_|\___ (_)
                                               (_____|  

                                    ;)

